<svg width="400" height="400" xmlns="http://www.w3.org/2000/svg" viewBox="0 0 400 400">
    <defs><style>
        ellipse {
            stroke: #fff8; stroke-width: 20px;
            fill: none;
        }
        text {
            font-family: 'Noto Serif', serif;
            font-size: 196px;
            font-weight: bold;
            text-anchor: middle;
            fill: #fff8;
            display: none;
            dominant-baseline: middle;
        }
        text.tight {
            font-size: 160px;
        }
        :target {display:inline;}
    </style></defs>
    <ellipse ry="160" rx="160" cy="200" cx="200" />
    <text id="bs" y="200" x="200">▶</text>
    <text id="bg" y="210" x="200">G</text>
    <text id="bm" y="210" x="200">M</text>
    <text id="ba" y="210" x="200">A</text>
    <text id="bb" y="210" x="200">B</text>
    <text id="bc" y="210" x="200">C</text>
    <text id="bx" y="210" x="200">X</text>
    <text id="by" y="210" x="200">Y</text>
    <text id="bz" y="210" x="200">Z</text>
    <text id="b1" y="210" x="200">1</text>
    <text id="b2" y="210" x="200">2</text>
    <text id="b3" y="210" x="200">3</text>
    <text id="b4" y="210" x="200">4</text>
    <text id="b5" y="210" x="200">5</text>
    <text id="b6" y="210" x="200">6</text>
    <text id="b7" y="210" x="200">7</text>
    <text id="b8" y="210" x="200">8</text>
    <text id="b9" y="210" x="200">9</text>
    <text class="tight" id="b10" y="210" x="200">10</text>
    <text class="tight" id="b11" y="210" x="200">11</text>
    <text class="tight" id="b12" y="210" x="200">12</text>
    <text class="tight" id="b13" y="210" x="200">13</text>
    <text class="tight" id="b14" y="210" x="200">14</text>
    <text class="tight" id="b15" y="210" x="200">15</text>
    <text class="tight" id="b16" y="210" x="200">16</text>
    <text class="tight" id="lb" y="210" x="200">LB</text>
    <text class="tight" id="rb" y="210" x="200">RB</text>
    <text class="tight" id="l1" y="210" x="200">L1</text>
    <text class="tight" id="l2" y="210" x="200">L2</text>
    <text class="tight" id="r1" y="210" x="200">R1</text>
    <text class="tight" id="r2" y="210" x="200">R2</text>
    <text id="circle" y="210" x="200">○</text>
    <text id="cross" y="210" x="200">✕</text>
    <text id="triangle" y="210" x="200">△</text>
    <text id="square" y="210" x="200">□</text>
</svg>
