<svg xmlns="http://www.w3.org/2000/svg" width="100" height="100" viewBox="0 0 100 100" preserveAspectRatio="none">
    <defs><style>
        path {
            fill: #333333;
            stroke: #000000; stroke-width:2;
        }
        circle {
            fill: #141414;
            stroke: none;
        }
    </style> </defs>
    <path
        d="M 49.363281 0.98828125 C 39.512513 1.1161168 50.138503 3.2457994 40.501953 5.2929688 C 30.865398 7.3401387 39.708256 1.0750585 30.65625 4.9628906 C 21.604247 8.8507214 32.23678 6.7529455 24.117188 12.332031 C 15.997591 17.911119 21.769686 8.7370272 14.894531 15.792969 C 8.0193791 22.848908 17.038377 16.841878 11.671875 25.103516 C 6.3053707 33.365154 8.1281852 22.682185 4.4765625 31.832031 C 0.8249412 40.981877 6.85891 31.979588 5.0625 41.666016 C 3.2660892 51.352449 0.86044572 40.785945 0.98828125 50.636719 C 1.1161168 60.487487 3.2457994 49.861497 5.2929688 59.498047 C 7.3401387 69.134599 1.0750582 60.291741 4.9628906 69.34375 C 8.8507214 78.395753 6.7529455 67.763219 12.332031 75.882812 C 17.911119 84.002408 8.7370272 78.230316 15.792969 85.105469 C 22.848908 91.980622 16.84188 82.961621 25.103516 88.328125 C 33.365158 93.694629 22.682185 91.871814 31.832031 95.523438 C 40.981877 99.175058 31.979588 93.141091 41.666016 94.9375 C 51.352449 96.733911 40.785945 99.139553 50.636719 99.011719 C 60.487487 98.883882 49.861497 96.754201 59.498047 94.707031 C 69.134602 92.659861 60.291744 98.92494 69.34375 95.037109 C 78.395753 91.149279 67.763219 93.247056 75.882812 87.667969 C 84.002408 82.088882 78.230316 91.262974 85.105469 84.207031 C 91.980622 77.151092 82.961621 83.158123 88.328125 74.896484 C 93.694629 66.634845 91.871814 77.317817 95.523438 68.167969 C 99.175058 59.018126 93.141091 68.020415 94.9375 58.333984 C 96.733911 48.647554 99.139553 59.214052 99.011719 49.363281 C 98.883882 39.512511 96.754198 50.138503 94.707031 40.501953 C 92.659861 30.865398 98.924942 39.708256 95.037109 30.65625 C 91.149279 21.604247 93.247056 32.236781 87.667969 24.117188 C 82.088882 15.997591 91.262974 21.769686 84.207031 14.894531 C 77.151092 8.0193788 83.158121 17.038377 74.896484 11.671875 C 66.634842 6.3053707 77.317817 8.1281852 68.167969 4.4765625 C 59.018126 0.82494092 68.020412 6.85891 58.333984 5.0625 C 48.647551 3.2660892 59.214055 0.86044572 49.363281 0.98828125 z " />
  <circle cx="50" cy="20" r="10" />
</svg>
